<svg viewBox="0 0 512 512" xmlns="http://www.w3.org/2000/svg">
    <path d="M496 256c0 132.55-107.45 240-240 240S16 388.55 16 256 123.45 16 256 16s240 107.45 240 240z" fill="#4285F4"/>
    <path d="M496 256c0-132.55-107.45-240-240-240v480c132.55 0 240-107.45 240-240z" fill="#3C79E6"/>
    <path d="M256 16c-54.34 0-103.88 18.2-143.5 48.86l287 287C429.8 403.88 448 354.34 448 256h-96c0 53-43 96-96 96v-96h-96c-53 0-96-43-96-96h144z" fill="#FFF"/>
    <path d="M400.5 65.36L113.5 352.36c40 24.78 89 39.64 142.5 39.64v-96h96c53 0 96-43 96-96h-48z" fill="#E8E8E8"/>
    <path d="M384 160h-48c-26.51 0-48 21.49-48 48s21.49 48 48 48h48c26.51 0 48-21.49 48-48s-21.49-48-48-48z" fill="#FFC107"/>
    <path d="M384 160h-48v96h48c26.51 0 48-21.49 48-48s-21.49-48-48-48z" fill="#FFAB00"/>
    <circle cx="160" cy="352" r="48" fill="#34A853"/>
    <circle cx="160" cy="352" r="24" fill="#167C3D"/>
</svg>
